<svg width="189" height="39" viewBox="0 0 189 39" fill="none" xmlns="http://www.w3.org/2000/svg">
<path d="M47.5784 15.5339C49.1678 16.7351 49.9626 18.3974 49.9626 20.5207C49.9626 22.632 49.1982 24.2942 47.6694 25.5076C46.1405 26.7209 44.0172 27.3276 41.2993 27.3276C38.5814 27.3276 36.361 26.909 34.638 26.0718V22.3589C36.9676 23.4631 39.273 24.0152 41.5541 24.0152C43.0708 24.0152 44.2053 23.73 44.9575 23.1598C45.7098 22.5774 46.0859 21.8069 46.0859 20.8483C46.0859 19.8898 45.7523 19.1072 45.0849 18.5005C44.4176 17.8817 42.998 17.1355 40.8261 16.2619C38.6542 15.3761 37.1254 14.363 36.2396 13.2224C35.3539 12.0819 34.911 10.723 34.911 9.1456C34.911 7.14358 35.6208 5.57229 37.0404 4.43175C38.4722 3.27907 40.3529 2.70273 42.6825 2.70273C45.0121 2.70273 47.3236 3.20627 49.6168 4.21335L48.361 7.41658C46.2133 6.5187 44.3145 6.06977 42.6643 6.06977C41.4267 6.06977 40.4742 6.34277 39.8069 6.88878C39.1395 7.42265 38.8059 8.15066 38.8059 9.0728C38.8059 9.70374 38.9333 10.2437 39.1881 10.6926C39.4793 11.1537 39.9161 11.5723 40.4985 11.9484C41.093 12.3246 42.2154 12.8584 43.8655 13.5501C45.5278 14.2417 46.7654 14.9029 47.5784 15.5339ZM64.2712 12.64C63.5796 11.8635 62.615 11.4752 61.3774 11.4752C60.1398 11.4752 59.157 11.8635 58.429 12.64C57.7009 13.4166 57.2641 14.545 57.1185 16.0253H65.345C65.3208 14.545 64.9628 13.4166 64.2712 12.64ZM62.0872 27.3276C59.2722 27.3276 57.07 26.5025 55.4805 24.8524C53.891 23.2022 53.0963 20.9211 53.0963 18.0091C53.0963 15.0971 53.8304 12.7978 55.2985 11.1112C56.7788 9.41254 58.7566 8.56319 61.2318 8.56319C63.7191 8.56319 65.6544 9.2912 67.0376 10.7472C68.433 12.179 69.1307 14.1749 69.1307 16.7351V18.8099H57.0639C57.1125 20.5693 57.5857 21.9221 58.4836 22.8686C59.3814 23.815 60.6433 24.2882 62.2692 24.2882C64.247 24.2882 66.2308 23.8514 68.2207 22.9778V26.1082C66.4734 26.9211 64.429 27.3276 62.0872 27.3276ZM89.4494 15.1881V27H85.5728V15.8615C85.5728 14.454 85.2876 13.4105 84.7174 12.731C84.1592 12.0394 83.2735 11.6936 82.0601 11.6936C80.4464 11.6936 79.2573 12.179 78.4929 13.1496C77.7406 14.1203 77.3645 15.7401 77.3645 18.0091V27H73.506V1.51972H77.3645V7.98079C77.3645 8.9636 77.2978 10.0738 77.1643 11.3114H77.4009C78.5293 9.47927 80.3493 8.56319 82.8609 8.56319C87.2533 8.56319 89.4494 10.7715 89.4494 15.1881ZM108.898 27H106.149L105.385 24.4702H105.239C104.366 25.5743 103.486 26.3266 102.6 26.727C101.727 27.1274 100.592 27.3276 99.197 27.3276C97.4134 27.3276 96.0241 26.8483 95.0291 25.8898C94.0342 24.9191 93.5367 23.5298 93.5367 21.7219C93.5367 18.094 96.3456 16.1951 101.963 16.0253L105.076 15.9343V14.9697C105.076 13.8049 104.803 12.9373 104.257 12.367C103.723 11.7968 102.892 11.5116 101.763 11.5116C100.319 11.5116 98.6085 11.9666 96.6308 12.8766L95.3931 10.1284C97.4073 9.08493 99.5792 8.56319 101.909 8.56319C104.251 8.56319 105.998 9.0728 107.15 10.092C108.315 11.0991 108.898 12.6704 108.898 14.8059V27ZM97.5408 21.8493C97.5408 22.6623 97.7834 23.2872 98.2688 23.724C98.7541 24.1608 99.47 24.3792 100.416 24.3792C101.812 24.3792 102.934 23.9909 103.783 23.2144C104.633 22.4378 105.057 21.3397 105.057 19.9201V18.3549L102.728 18.4459C100.908 18.5187 99.5853 18.8281 98.7602 19.3741C97.9472 19.908 97.5408 20.7331 97.5408 21.8493ZM118.475 21.5035C118.475 22.4014 118.699 23.0809 119.148 23.542C119.609 23.9909 120.264 24.2154 121.114 24.2154C121.975 24.2154 122.879 24.0698 123.825 23.7786V26.6724C122.794 27.1092 121.55 27.3276 120.094 27.3276C116.442 27.3276 114.616 25.4044 114.616 21.5581V11.8028H112.141V10.092L114.798 8.6906L116.109 4.85035H118.475V8.8908H123.643V11.8028H118.475V21.5035ZM131.294 8.8908V27H127.436V8.8908H131.294ZM131.531 4.06774C131.531 4.73508 131.343 5.25682 130.967 5.63296C130.59 6.0091 130.057 6.19717 129.365 6.19717C128.685 6.19717 128.158 6.0091 127.782 5.63296C127.405 5.25682 127.217 4.73508 127.217 4.06774C127.217 3.38827 127.405 2.86653 127.782 2.50253C128.158 2.12639 128.685 1.93832 129.365 1.93832C130.057 1.93832 130.59 2.12639 130.967 2.50253C131.343 2.86653 131.531 3.38827 131.531 4.06774ZM145.887 8.8908V11.8028H141.465V27H137.588V11.8028H134.603V10.001L137.588 8.818V7.63499C137.588 5.49949 138.092 3.91608 139.099 2.88473C140.106 1.85339 141.641 1.33771 143.703 1.33771C145.074 1.33771 146.409 1.56218 147.707 2.01112L146.688 4.92315C145.742 4.61982 144.832 4.46815 143.958 4.46815C143.097 4.46815 142.466 4.73508 142.065 5.26896C141.665 5.80283 141.465 6.61577 141.465 7.70778V8.8908H145.887ZM149.388 35.0627C148.539 35.0627 147.714 34.9717 146.913 34.7897V31.7321C147.507 31.8655 148.169 31.9323 148.897 31.9323C150.765 31.9323 152.07 30.8584 152.81 28.7108L153.483 27L146.203 8.8908H150.389L154.084 19.1557C154.642 20.6117 155.012 21.9889 155.194 23.2872H155.321C155.406 22.6805 155.613 21.8736 155.94 20.8665C156.268 19.8473 157.633 15.8554 160.035 8.8908H164.185L156.432 29.4024C155.024 33.1759 152.676 35.0627 149.388 35.0627Z" fill="#2A8CBB"/>
<path d="M19.8394 11.9789H18.1877V10.4489C18.1877 10.0431 18.0137 9.65388 17.704 9.36694C17.3942 9.08 16.9741 8.9188 16.5361 8.9188C16.0981 8.9188 15.678 9.08 15.3682 9.36694C15.0585 9.65388 14.8845 10.0431 14.8845 10.4489V11.9789H13.2328C12.7948 11.9789 12.3747 12.1401 12.065 12.427C11.7552 12.714 11.5812 13.1032 11.5812 13.509C11.5812 13.9148 11.7552 14.3039 12.065 14.5909C12.3747 14.8778 12.7948 15.039 13.2328 15.039H14.8845V16.5691C14.8845 16.9749 15.0585 17.364 15.3682 17.651C15.678 17.9379 16.0981 18.0991 16.5361 18.0991C16.9741 18.0991 17.3942 17.9379 17.704 17.651C18.0137 17.364 18.1877 16.9749 18.1877 16.5691V15.039H19.8394C20.2774 15.039 20.6975 14.8778 21.0072 14.5909C21.317 14.3039 21.491 13.9148 21.491 13.509C21.491 13.1032 21.317 12.714 21.0072 12.427C20.6975 12.1401 20.2774 11.9789 19.8394 11.9789ZM30.0134 2.79858C28.2523 1.18392 25.9262 0.205551 23.4548 0.0400163C20.9835 -0.125519 18.5297 0.53268 16.5361 1.89585C14.4347 0.44786 11.819 -0.208725 9.21595 0.0583089C6.61287 0.325343 4.21568 1.49616 2.50712 3.33499C0.798565 5.17382 -0.0944458 7.54407 0.00792023 9.96844C0.110286 12.3928 1.20042 14.6912 3.05881 16.4008L12.9686 25.6576C13.8976 26.5172 15.157 27 16.47 27C17.7831 27 19.0425 26.5172 19.9715 25.6576L29.8813 16.4008C30.8573 15.5174 31.6352 14.464 32.1703 13.3012C32.7055 12.1384 32.9873 10.8891 32.9996 9.62512C33.0119 8.3611 32.7544 7.1073 32.2419 5.93577C31.7294 4.76424 30.9721 3.69809 30.0134 2.79858ZM27.6846 14.2128L17.7748 23.3931C17.6213 23.5365 17.4386 23.6504 17.2374 23.728C17.0361 23.8057 16.8202 23.8457 16.6022 23.8457C16.3841 23.8457 16.1683 23.8057 15.967 23.728C15.7657 23.6504 15.5831 23.5365 15.4295 23.3931L5.51974 14.2128C4.22446 12.9862 3.49915 11.3385 3.49915 9.62262C3.49915 7.90672 4.22446 6.25903 5.51974 5.03246C6.83965 3.82523 8.6198 3.1483 10.4746 3.1483C12.3295 3.1483 14.1096 3.82523 15.4295 5.03246C15.5831 5.17587 15.7657 5.2897 15.967 5.36737C16.1683 5.44505 16.3841 5.48505 16.6022 5.48505C16.8202 5.48505 17.0361 5.44505 17.2374 5.36737C17.4386 5.2897 17.6213 5.17587 17.7748 5.03246C19.0947 3.82523 20.8749 3.1483 22.7297 3.1483C24.5845 3.1483 26.3647 3.82523 27.6846 5.03246C28.9898 6.2604 29.7214 7.9146 29.7214 9.63792C29.7214 11.3612 28.9898 13.0154 27.6846 14.2434V14.2128Z" fill="#2A8CBB"/>
</svg>
